# xmcd
#
# Track frame offsets: 
#        150
#        12744
#        34402
#        55176
#        72914
#        94961
#        111964
#        133456
#        150876
#        168582
#        191779
#
# Disc length: 2756 seconds
#
# Revision: 0
# Processed by: cddbd v1.5.2PL0 Copyright (c) Steve Scherf et al.
# Submitted via: ExactAudioCopyFreeDBPlugin 1.0
#
DISCID=a10ac20b
DTITLE=Southern Raised - A Soul Going Somewhere
DYEAR=2012
DGENRE=Gospel
TTITLE0=The Sun Will Never Set Again
TTITLE1=A Soul Going Somewhere
TTITLE2=He Came Looking For Me
TTITLE3=More Than Merciful
TTITLE4=The Scarlet Cord
TTITLE5=This World Is Not My Home
TTITLE6=Go Tell My Borthers
TTITLE7=Prairie Spring
TTITLE8=This Rock Is Jesus
TTITLE9=Perfect Time
TTITLE10=Just a Closer Walk
EXTD=
EXTT0=
EXTT1=
EXTT2=
EXTT3=
EXTT4=
EXTT5=
EXTT6=
EXTT7=
EXTT8=
EXTT9=
EXTT10=
PLAYORDER=
